<?xml version="1.0" encoding="iso-8859-1"?>
<!-- Generator: Adobe Illustrator 19.0.0, SVG Export Plug-In . SVG Version: 6.00 Build 0)  -->
<svg version="1.1" id="Capa_1" xmlns="http://www.w3.org/2000/svg" xmlns:xlink="http://www.w3.org/1999/xlink" x="0px" y="0px"
	 viewBox="0 0 512 512" style="enable-background:new 0 0 512 512;" xml:space="preserve">
<g>
	<g transform="translate(1 1)">
		<path style="fill:#00695C;" d="M502.467,165.386V429.92c0.002,9.053-3.593,17.737-9.995,24.139
			c-6.402,6.402-15.085,9.997-24.139,9.995H41.667c-9.053,0.003-17.737-3.593-24.139-9.995c-6.402-6.402-9.997-15.085-9.995-24.139
			V165.386c-0.002-9.053,3.593-17.737,9.995-24.139c6.402-6.402,15.085-9.997,24.139-9.995h153.6L502.467,165.386z"/>
		<path style="fill:#009688;" d="M476.867,165.386V429.92c0.002,9.053-3.593,17.737-9.995,24.139
			c-6.402,6.402-15.085,9.997-24.139,9.995H41.667c-9.053,0.003-17.737-3.593-24.139-9.995c-6.402-6.402-9.997-15.085-9.995-24.139
			V165.386c-0.002-9.053,3.593-17.737,9.995-24.139c6.402-6.402,15.085-9.997,24.139-9.995h128L476.867,165.386z"/>
		<path style="fill:#FDD834;" d="M502.467,126.132v78.252c-0.946,71.415-34.758,138.408-91.648,181.589l-50.603,40.021
			c-6.671,5.204-16.027,5.204-22.699,0l-1.621-1.28l-48.981-38.741c-56.89-43.18-90.702-110.173-91.648-181.589v-78.252
			c0.046-5.709,3.364-10.886,8.533-13.311l131.328-63.744c8.682-4.181,18.795-4.181,27.477,0l114.176,55.381l17.152,8.363
			C499.102,115.246,502.421,120.423,502.467,126.132z"/>
		<path style="fill:#FFEB3A;" d="M476.867,105.824v83.456c-0.326,74.962-33.895,145.915-91.648,193.707l-49.323,41.728
			l-48.981-38.741c-56.89-43.18-90.702-110.173-91.648-181.589v-78.252c0.046-5.709,3.364-10.886,8.533-13.311l131.328-63.744
			c8.682-4.181,18.795-4.181,27.477,0l114.176,55.381C476.852,104.91,476.881,105.367,476.867,105.824z"/>
		<ellipse style="fill:#8BC34A;" cx="348.867" cy="208.395" rx="76.8" ry="76.459"/>
		<path style="fill:#FF9801;" d="M172.975,313.331l-29.64-14.61c-3.813-1.861-6.236-5.727-6.249-9.97v-11.466
			c0.995-1.136,1.931-2.323,2.805-3.555c3.992-5.592,7.1-11.765,9.213-18.303c3.881-1.143,6.56-4.688,6.6-8.734v-12.237
			c-0.014-2.601-1.144-5.071-3.103-6.782v-17.691c0,0,3.683-27.532-34.133-27.532c-37.82,0-34.133,27.532-34.133,27.532v17.691
			c-1.959,1.711-3.089,4.181-3.103,6.782v12.237c0.018,3.132,1.637,6.037,4.291,7.7c2.069,8.342,5.896,16.147,11.224,22.891v11.181
			c-0.012,4.098-2.276,7.858-5.893,9.786l-27.682,14.886c-7.962,4.242-12.946,12.518-12.971,21.539v9.909h136.533v-9.309
			C186.704,325.938,181.368,317.427,172.975,313.331z"/>
	</g>
	<g>
		<path d="M349.867,439.42c-6.034,0.021-11.898-1.997-16.642-5.725l-50.604-40.067c-58.939-44.798-93.944-114.258-94.887-188.283
			V127.12c0.001-8.985,5.179-17.165,13.3-21.008l131.371-63.717c11.038-5.308,23.891-5.308,34.929,0L498.7,106.111
			c8.12,3.845,13.298,12.024,13.3,21.008v78.225c-0.946,74.03-35.956,143.493-94.9,188.292l-50.592,40.058
			C361.764,437.423,355.9,439.44,349.867,439.42z M349.867,55.462c-3.466-0.006-6.888,0.774-10.008,2.283l-131.375,63.717
			c-2.215,1.02-3.647,3.22-3.683,5.658v78.225c0.962,68.8,33.573,133.318,88.4,174.892l50.617,40.075
			c3.559,2.767,8.541,2.767,12.1,0l50.6-40.067c54.836-41.571,87.454-106.094,88.417-174.9V127.12
			c-0.034-2.438-1.467-4.64-3.683-5.658L359.879,57.745C356.756,56.24,353.334,55.459,349.867,55.462z"/>
		<path d="M349.867,294.387c-46.895-0.188-84.776-38.324-84.65-85.219s38.21-84.827,85.105-84.765
			c46.895,0.063,84.878,38.096,84.879,84.991C435.054,256.407,396.879,294.429,349.867,294.387z M349.867,141.47
			c-37.47,0.188-67.71,30.682-67.585,68.152c0.125,37.47,30.569,67.761,68.039,67.699s67.812-30.455,67.812-67.925
			C417.995,171.805,387.457,141.42,349.867,141.47z"/>
		<path d="M335.904,242.411c-2.264,0.003-4.435-0.897-6.033-2.5l-13.967-13.966c-3.332-3.332-3.332-8.735,0-12.067
			c3.332-3.332,8.735-3.332,12.067,0l7.933,7.933l35.859-35.858c3.337-3.304,8.716-3.29,12.036,0.03
			c3.32,3.32,3.334,8.699,0.031,12.036l-41.892,41.892C340.339,241.514,338.168,242.414,335.904,242.411z"/>
		<path d="M469.333,473.587H42.667C19.114,473.559,0.028,454.473,0,430.92V166.386c0.028-23.553,19.114-42.639,42.667-42.667h153.6
			c4.713,0,8.533,3.821,8.533,8.533c0,4.713-3.821,8.533-8.533,8.533h-153.6c-14.132,0.015-25.585,11.468-25.6,25.6V430.92
			c0.015,14.132,11.468,25.585,25.6,25.6h426.667c14.132-0.015,25.585-11.468,25.6-25.6V166.386c0-4.713,3.821-8.533,8.533-8.533
			c4.713,0,8.533,3.821,8.533,8.533V430.92C511.972,454.473,492.886,473.559,469.333,473.587z"/>
		<path d="M187.733,388.253h-134.6c-4.713,0-8.533-3.82-8.533-8.533s3.821-8.533,8.533-8.533h134.6c4.713,0,8.533,3.821,8.533,8.533
			S192.446,388.253,187.733,388.253z"/>
		<path d="M119.467,422.387H53.133c-4.713,0-8.533-3.82-8.533-8.533s3.821-8.533,8.533-8.533h66.333c4.713,0,8.533,3.82,8.533,8.533
			S124.179,422.387,119.467,422.387z"/>
		<path d="M187.733,354.12H51.2c-2.263,0.001-4.434-0.898-6.035-2.499c-1.6-1.6-2.499-3.771-2.499-6.035v-9.908
			c0.019-12.165,6.73-23.332,17.463-29.058l27.683-14.883c0.848-0.441,1.385-1.311,1.4-2.267v-8.308
			c-4.553-6.362-8.016-13.436-10.25-20.933c-3.369-3.3-5.268-7.817-5.267-12.533v-12.233c0.007-3.544,1.089-7.002,3.104-9.917
			v-14.117c-0.679-8.611,2.096-17.138,7.713-23.7c9.202-9.2,21.986-13.885,34.954-12.809c12.965-1.075,25.746,3.606,34.95,12.8
			c5.619,6.564,8.395,15.094,7.717,23.708v14.117c2.015,2.915,3.097,6.373,3.104,9.917v12.233c0.008,6.061-3.117,11.696-8.262,14.9
			c-2.294,6.076-5.369,11.827-9.15,17.108c-0.413,0.575-0.815,1.117-1.208,1.625v8.425c0.019,0.988,0.593,1.881,1.483,2.308
			l29.646,14.608l0.004,0.009c11.338,5.5,18.531,16.999,18.517,29.6v9.308c0.001,2.263-0.898,4.434-2.499,6.035
			C192.168,353.222,189.997,354.12,187.733,354.12z M59.733,337.053H179.2v-0.775c-0.01-6.095-3.505-11.647-8.996-14.292
			l-29.642-14.608c-6.749-3.275-11.028-10.124-11.013-17.625v-11.466c0-2.096,0.771-4.119,2.167-5.683
			c0.8-0.915,1.551-1.872,2.25-2.867c3.479-4.876,6.185-10.258,8.025-15.958c0.865-2.642,2.962-4.697,5.621-5.508l0.558-12.809
			c-1.9-1.755-3.018-4.198-3.104-6.783v-17.692c0-0.379,0.025-0.758,0.075-1.133c0.247-4.018-1.078-7.975-3.696-11.034
			c-6.086-5.184-14.027-7.653-21.979-6.833c-8.019-0.849-16.029,1.678-22.108,6.975c-2.528,3.046-3.804,6.94-3.567,10.892
			c0.05,0.376,0.075,0.754,0.075,1.133v17.692c0,2.436-1.042,4.756-2.863,6.375l-0.242,12.642c2.001,1.376,3.444,3.421,4.071,5.767
			c1.774,7.026,4.987,13.607,9.438,19.325c1.289,1.544,1.999,3.489,2.008,5.5v11.183c-0.011,7.235-3.997,13.878-10.375,17.292
			l-27.692,14.892c-5.196,2.754-8.455,8.144-8.479,14.025V337.053z"/>
	</g>
</g>
<g>
</g>
<g>
</g>
<g>
</g>
<g>
</g>
<g>
</g>
<g>
</g>
<g>
</g>
<g>
</g>
<g>
</g>
<g>
</g>
<g>
</g>
<g>
</g>
<g>
</g>
<g>
</g>
<g>
</g>
</svg>
